<?xml version="1.0" encoding="UTF-8"?>
<svg id="Layer_1" data-name="Layer 1" xmlns="http://www.w3.org/2000/svg" viewBox="0 0 141 112">
  <path d="M79,0c10.01,3.21,18.26,6.62,22.49,17.01,3.02,7.42,4.13,30.01,1.02,37-2.9,6.5-10.79,9.08-17.07,10.93-1.74,9.28,3.69,24.84-11.38,20.01l-.07-4.95c-2.4.52-1.48,4.12-3.62,4.87-10.14,3.52-5.66-6.04-8.88-10.86-.3,4.95-3.14,11.32-9.09,8.09-2.97-2.4-.66-14.06-1.45-18.06-6.42.45-14.48-5.64-15.73-11.77-1.54-7.55-.65-27.88,2.59-34.95C42.78,6.5,51.39,3.34,62,0h17ZM52.73,31.23c-13.16,2.75-12.1,25.21,3.71,22.71,11.59-1.83,14.96-26.62-3.71-22.71ZM81.74,31.23c-19.17,3.36-2.79,35.02,8.27,19.28,6.27-8.93,5.07-21.61-8.27-19.28ZM67.99,48c-1.96,2.45-7.13,11.63-6.97,14.42.41,7.32,13.63,6.76,13.01.15-.25-2.66-7.17-9.92-6.04-14.57Z"/>
  <path d="M113,112c-5.32-3.6-4.02-8.53-3.44-13.99l-17.34-13.21.79-12.8,22.93,14.58c7.42-6.46,19.9-3.48,17.61,7.43-1.21,5.77-6.86,5.1-8.08,6.96s-.22,8.53-4.47,11.03h-8Z"/>
  <path d="M17,112c-4.82-2.73-3.16-9.08-4.45-11.05-1.21-1.84-14.38-4.21-7.99-13.89,5.58-8.44,13.5.45,16.69-.22l21.23-12.84,1.06,12.01-15.08,12.03c.85,6.13,1.41,10.36-4.47,13.98h-7Z"/>
  <path d="M141,45c-4.49,5.42-11.71,5.63-15.14-.88l-14.86,7.88c.49-4.14-1.15-9.9.94-13.55,1.14-1.99,5.55-3.69,5.95-5.1.36-1.27-.99-3.84-.95-5.81.2-11.43,16.17-11.63,17.03-.9.15,1.87-1.11,4.16-.98,4.34.28.39,7.39,2.05,8,5.03v9Z"/>
  <path d="M0,39c.17-4.35,7.66-6.6,7.99-7.04s-2.65-5.98,1.46-10c7.2-7.03,17.13,4.2,11.97,12.07,9.84,4.5,3.54,10.23,6.59,18.46-4.86.24-9.23-4.59-12.65-7.42-6.31,5.57-11.2,5.81-15.37-2.07v-4Z"/>
  <path d="M52.73,31.23c18.67-3.91,15.31,20.88,3.71,22.71-15.81,2.5-16.87-19.96-3.71-22.71Z" fill="#fff"/>
  <path d="M81.74,31.23c13.34-2.34,14.54,10.35,8.27,19.28-11.06,15.74-27.44-15.92-8.27-19.28Z" fill="#fff"/>
  <path d="M67.99,48c-1.13,4.65,5.79,11.91,6.04,14.57.62,6.61-12.61,7.17-13.01-.15-.15-2.79,5.01-11.97,6.97-14.42Z" fill="#fff"/>
</svg>